<svg xmlns="http://www.w3.org/2000/svg" xmlns:xlink="http://www.w3.org/1999/xlink" width="1080" zoomAndPan="magnify" viewBox="0 0 810 809.999993" height="1080" preserveAspectRatio="xMidYMid meet" version="1.0"><path fill="#03a8e8" d="M 810.050781 404.972656 C 810.050781 405.929688 810.050781 406.984375 809.988281 407.957031 C 809.859375 427.90625 808.296875 447.523438 805.296875 466.707031 C 791.199219 559.367188 745.71875 641.625 680.027344 702.324219 L 679.964844 702.324219 C 607.703125 769.175781 511.074219 810.050781 404.972656 810.050781 C 353.046875 810.050781 303.402344 800.308594 257.855469 782.429688 C 252.210938 780.292969 246.613281 777.949219 241.078125 775.492188 C 164.019531 741.363281 99.683594 683.933594 56.863281 612.058594 C 35.367188 575.9375 19.242188 536.160156 9.753906 493.933594 C 3.328125 465.273438 -0.0546875 435.5 -0.0546875 404.972656 C -0.0546875 394.257812 0.34375 383.652344 1.253906 373.207031 C 8.078125 284.359375 43.628906 203.585938 98.597656 140.113281 C 119.761719 115.664062 143.8125 93.765625 170.207031 74.996094 L 170.269531 74.933594 C 177.414062 69.878906 184.75 64.933594 192.292969 60.324219 C 238.304688 31.859375 290.40625 12.289062 346.222656 4.171875 C 365.390625 1.363281 385.023438 -0.0546875 404.972656 -0.0546875 C 452.53125 -0.0546875 498.269531 8.191406 540.644531 23.277344 C 609.140625 47.582031 669.039062 89.8125 714.921875 144.257812 C 774.328125 214.714844 810.050781 305.683594 810.050781 404.972656 " fill-opacity="1" fill-rule="nonzero"/><path fill="#70c573" d="M 459.085938 721.972656 C 459.085938 721.972656 437.03125 691.207031 439.484375 638.46875 C 441.925781 585.726562 437.03125 576.941406 402.742188 565.953125 C 368.453125 554.964844 334.148438 535.171875 329.253906 508.8125 C 324.359375 482.433594 353.75 420.90625 353.75 420.90625 C 353.75 420.90625 392.949219 394.542969 427.238281 398.929688 C 461.527344 403.332031 520.324219 403.332031 547.261719 427.507812 C 574.214844 451.671875 591.339844 506.609375 603.589844 508.8125 C 615.835938 511.011719 586.445312 605.503906 581.550781 620.894531 C 576.652344 636.265625 561.964844 697.808594 549.71875 721.972656 C 537.46875 746.148438 525.222656 768.125 515.414062 768.125 C 505.621094 768.125 461.527344 772.527344 459.085938 721.972656 " fill-opacity="1" fill-rule="nonzero"/><path fill="#70c573" d="M 268.761719 716.945312 C 266.625 727.328125 262.800781 754.949219 257.855469 782.429688 C 252.210938 780.292969 246.613281 777.949219 241.078125 775.492188 C 164.019531 741.363281 99.683594 683.933594 56.863281 612.058594 C 35.367188 575.9375 19.242188 536.160156 9.753906 493.933594 C 24.695312 485.988281 43.417969 478.84375 61.808594 479.179688 C 102.09375 479.960938 107.164062 489.863281 141.46875 514.472656 C 175.707031 539.113281 202.546875 600.574219 217.042969 601.628906 C 231.523438 602.601562 272.480469 698.480469 268.761719 716.945312 " fill-opacity="1" fill-rule="nonzero"/><path fill="#70c573" d="M 810.050781 404.972656 C 810.050781 405.929688 810.050781 406.984375 809.988281 407.957031 C 809.859375 427.90625 808.296875 447.523438 805.296875 466.707031 C 787.117188 439.996094 767.484375 399.902344 757.488281 392.886719 C 742.082031 382.027344 685.625 375.535156 706.152344 403.730469 C 726.691406 432.007812 735.382812 432.007812 735.382812 432.007812 C 735.382812 432.007812 695.878906 511.539062 667.683594 503.820312 C 639.425781 496.148438 582.953125 392.886719 582.953125 392.886719 C 549.605469 366.636719 613.75 347.273438 613.75 347.273438 C 613.75 347.273438 634.289062 329.332031 603.476562 308.792969 C 572.683594 288.269531 549.605469 331.871094 529.082031 326.734375 C 508.554688 321.597656 503.40625 342.125 496.976562 362.664062 C 490.550781 383.191406 471.828125 395.484375 467.472656 362.664062 C 463.058594 329.84375 416.136719 349.875 400.75 349.875 C 385.34375 349.875 354.546875 403.730469 326.273438 403.730469 C 298.074219 403.730469 298.074219 365.265625 303.210938 347.273438 C 308.347656 329.332031 351.949219 311.328125 393.011719 308.792969 C 434.078125 306.210938 395.613281 270.261719 408.417969 263.308594 C 421.273438 256.292969 459.753906 267.726562 496.976562 283.132812 C 534.152344 298.539062 572.683594 262.589844 606.078125 263.308594 C 639.425781 264.027344 534.214844 236.929688 567.546875 211.253906 C 600.957031 185.59375 529.082031 162.472656 531.617188 134.257812 C 534.214844 106 511.074219 72.652344 511.074219 41.855469 C 511.074219 32.050781 522 25.667969 540.644531 23.277344 C 609.140625 47.582031 669.039062 89.8125 714.921875 144.257812 C 774.328125 214.714844 810.050781 305.683594 810.050781 404.972656 " fill-opacity="1" fill-rule="nonzero"/><path fill="#70c573" d="M 236.644531 268.046875 C 236.644531 268.046875 251.523438 285.621094 262.992188 268.046875 C 274.472656 250.457031 276.097656 236.4375 268.921875 235.175781 C 261.714844 233.886719 219.007812 260.726562 236.644531 268.046875 " fill-opacity="1" fill-rule="nonzero"/><path fill="#70c573" d="M 149.96875 268.046875 C 149.96875 268.046875 180.554688 260.230469 187.347656 244.9375 C 194.160156 229.628906 233.246094 236.4375 243.4375 221.128906 C 253.644531 205.832031 280.039062 200.378906 286.402344 186.105469 C 292.734375 171.847656 299.636719 149.761719 273.246094 148.039062 C 246.851562 146.347656 220.824219 134.464844 221.09375 148.039062 C 221.351562 161.65625 214.554688 158.246094 190.761719 166.746094 C 166.96875 175.246094 141.46875 162.980469 141.46875 186.105469 C 141.46875 209.246094 148.277344 235.113281 148.277344 235.113281 C 148.277344 235.113281 134.671875 253.773438 149.96875 268.046875 " fill-opacity="1" fill-rule="nonzero"/><path fill="#70c573" d="M 346.222656 4.171875 C 346.222656 4.171875 300.675781 64.996094 292.222656 66.625 C 283.722656 68.234375 257.664062 86.097656 252.847656 103.988281 C 247.984375 121.867188 213.855469 133.222656 187.875 121.867188 C 161.878906 110.480469 155.898438 97.945312 170.207031 74.996094 L 170.269531 74.933594 C 177.414062 69.878906 184.75 64.933594 192.292969 60.324219 C 238.304688 31.859375 290.40625 12.289062 346.222656 4.171875 " fill-opacity="1" fill-rule="nonzero"/><path fill="#70c573" d="M 90.929688 243.167969 C 86.621094 256.164062 87.675781 271.316406 73.640625 275.84375 C 59.527344 280.40625 64.933594 297.292969 55.1875 318.9375 C 46.417969 338.441406 8.796875 367.542969 1.253906 373.207031 C 8.078125 284.359375 43.628906 203.585938 98.597656 140.113281 C 104.308594 157.464844 102.09375 186.105469 107.164062 195.46875 C 114.769531 209.566406 95.265625 230.167969 90.929688 243.167969 " fill-opacity="1" fill-rule="nonzero"/></svg>